<?xml version="1.0" encoding="iso-8859-1"?>
<!-- Generator: Adobe Illustrator 19.0.0, SVG Export Plug-In . SVG Version: 6.00 Build 0)  -->
<svg xmlns="http://www.w3.org/2000/svg" xmlns:xlink="http://www.w3.org/1999/xlink" version="1.1" id="Layer_1" x="0px" y="0px" viewBox="0 0 357.789 357.789" style="enable-background:new 0 0 357.789 357.789;" xml:space="preserve" width="512px" height="512px">
<g>
	<g>
		<path d="M239.487,0H118.561c-20.9,0-37.757,16.599-37.757,37.241v283.307c0,20.556,16.943,37.241,37.757,37.241h121.184    c20.556,0,37.241-16.599,37.241-37.241V37.499C276.986,16.943,260.042,0,239.487,0z M271.31,319.946L271.31,319.946    c-0.001,17.46-14.106,31.564-31.565,31.564H118.561c-17.46,0-32.167-14.363-32.167-31.564V36.897    c0-17.201,14.621-31.564,32.167-31.564h120.926c17.46,0,32.167,14.621,31.823,31.564V319.946z" fill="#FFFFFF"/>
	</g>
</g>
<g>
	<g>
		<path d="M261.247,48.938h-11.353v0.086h0c-1.72,0-2.838,1.118-2.838,2.838c0,1.72,1.118,2.838,2.838,2.838h8.429v182.077    l-12.127-12.127c-1.118-1.118-2.838-1.118-3.956,0c-1.118,1.118-1.118,2.838,0,3.956l16.083,16.083v58.054H100.499V56.076    l63.129,63.129c0.602,0.602,1.118,0.86,1.978,0.86c0.602,0,1.376-0.258,1.978-0.86c1.118-1.118,1.118-2.838,0-3.956L106.95,54.614    h117.572c1.72,0,2.838-1.118,2.838-2.838s-1.118-2.838-2.838-2.838H101.359l-0.86-0.86c-1.118-1.118-2.838-1.118-3.956,0    c-0.43,0.43-0.688,0.946-0.774,1.548c-0.602,0.516-0.86,1.204-0.86,2.15v253.721c0,1.72,1.118,2.838,2.838,2.838h163.499    c1.72,0,2.838-1.118,2.838-2.838V51.776C264.085,50.056,262.966,48.938,261.247,48.938z" fill="#FFFFFF"/>
	</g>
</g>
<g>
	<g>
		<path d="M199.149,26.491h-39.477c-1.72,0-2.838,1.118-2.838,2.838c-0.001,1.72,1.204,2.838,2.838,2.838h39.477    c1.72,0,2.838-1.118,2.838-2.838C201.987,27.609,200.869,26.491,199.149,26.491z" fill="#FFFFFF"/>
	</g>
</g>
<g>
	<g>
		<path d="M147.889,25.888c-1.118-1.118-2.838-1.118-3.956,0c-0.602,0.602-0.86,1.118-0.86,1.978c0,0.602,0.258,1.376,0.86,1.978    c0.516,0.602,1.118,0.86,1.978,0.86c0.86,0,1.376-0.258,1.978-0.86s0.86-1.118,0.86-1.978S148.491,26.49,147.889,25.888z" fill="#FFFFFF"/>
	</g>
</g>
<g>
	<g>
		<path d="M209.298,157.307l-27.867-27.867c-1.118-1.118-2.838-1.118-3.956,0c-1.118,1.118-1.118,2.838,0,3.956l27.867,27.867    c0.602,0.516,1.118,0.86,1.978,0.86s1.376-0.258,1.978-0.86C210.417,160.145,210.417,158.425,209.298,157.307z" fill="#FFFFFF"/>
	</g>
</g>
<g>
	<g>
		<path d="M234.671,213.126l-81.191-81.191c-1.118-1.118-2.839-1.118-3.956,0c-1.118,1.118-1.118,2.838,0,3.956l81.191,81.191    c0.602,0.602,1.118,0.86,1.978,0.86s1.376-0.258,1.978-0.86C235.789,215.964,235.789,214.244,234.671,213.126z" fill="#FFFFFF"/>
	</g>
</g>
<g>
	<g>
		<path d="M194.418,325.623c-0.344-1.462-2.064-2.322-3.44-1.978c-1.376,0.258-2.236,1.978-1.978,3.354    c1.376,5.935-2.236,11.869-8.171,13.245c-5.935,1.376-11.869-2.236-13.245-8.171c-1.376-5.935,2.236-11.869,8.171-13.245    c1.376-0.258,3.096-0.258,4.816,0c1.72,0.258,3.096-0.86,3.354-2.236c0.258-1.72-0.86-3.097-2.236-3.354    c-2.494-0.602-4.816-0.602-7.311,0c-9.03,2.236-14.621,11.267-12.385,20.298c1.978,7.913,8.773,12.987,16.341,12.987    c1.376,0,2.494,0,3.698-0.602C191.064,343.685,196.655,334.653,194.418,325.623z" fill="#FFFFFF"/>
	</g>
</g>
<g>
</g>
<g>
</g>
<g>
</g>
<g>
</g>
<g>
</g>
<g>
</g>
<g>
</g>
<g>
</g>
<g>
</g>
<g>
</g>
<g>
</g>
<g>
</g>
<g>
</g>
<g>
</g>
<g>
</g>
</svg>
